<?xml version="1.0"?>
<svg version="1.1" xmlns="http://www.w3.org/2000/svg" width="524px" height="285px" style=""><path fill="#007dfc" d="M54.7060546875,113.8779296875q0-1.234375,0.88720703125-2.04443359375t2.0830078125-1.27294921875t2.623046875-0.6171875t2.50732421875-0.154296875q2.2373046875,0,4.74462890625,0.6171875t3.74169921875,2.7001953125q2.2373046875,3.7802734375,3.27880859375,8.98779296875t1.96728515625,9.99072265625q1.388671875,6.634765625,3.548828125,13.88671875t4.51318359375,14.77392578125t4.82177734375,14.77392578125t4.3203125,13.578125q2.2373046875-9.3349609375,4.12744140625-19.1328125t3.6259765625-19.595703125t3.6259765625-19.595703125t4.12744140625-19.2099609375q0.462890625-2.2373046875,0.6943359375-5.6318359375t0.96435546875-6.5576171875t2.12158203125-5.43896484375t4.2431640625-2.27587890625q3.0087890625,0,4.05029296875,1.65869140625t1.04150390625,4.82177734375q-0.771484375,8.7177734375-2.50732421875,17.28125t-3.20166015625,17.126953125q-2.0830078125,10.5693359375-4.51318359375,21.17724609375t-4.5517578125,21.25439453125t-3.6259765625,21.33154296875t-1.81298828125,21.40869140625q0.154296875,0.462890625,0.462890625,1.080078125t0.30859375,0.92578125q0,0.92578125-0.8486328125,1.73583984375t-2.12158203125,1.388671875t-2.77734375,0.88720703125t-2.81591796875,0.30859375q-1.234375,0-2.81591796875-0.154296875t-3.1630859375-0.57861328125t-2.77734375-1.11865234375t-1.50439453125-1.7744140625q-1.234375-3.6259765625-2.27587890625-7.05908203125t-1.96728515625-7.05908203125q-4.3974609375-15.8154296875-9.21923828125-31.05224609375t-8.91064453125-30.97509765625q-1.9287109375-7.09765625-2.89306640625-13.92529296875t-3.12451171875-13.46240234375q0.30859375,0.6171875,0.30859375,1.0029296875q-0.30859375-1.080078125-0.6171875-2.04443359375t-0.6943359375-2.12158203125q0,0.30859375,0.0771484375,0.3857421875t0.0771484375,0.2314453125q0-0.154296875-0.0771484375-0.2314453125t-0.0771484375-0.2314453125z M138.15520507812,192.7236328125q0-5.24609375,1.42724609375-10.1064453125t4.28173828125-8.67919921875t7.13623046875-6.0947265625t9.91357421875-2.27587890625q3.4716796875,0,7.67626953125,1.04150390625t7.90771484375,3.0859375t6.171875,5.20751953125t2.46875,7.251953125q0,1.9287109375-0.65576171875,2.931640625t-2.66162109375,1.0029296875l-0.8486328125-0.154296875q2.2373046875,6.017578125,3.857421875,12.34375t3.1630859375,12.65234375q0.6171875,1.234375,0.92578125,2.19873046875t0.30859375,1.89013671875q0,1.234375-0.6943359375,2.04443359375t-1.81298828125,1.19580078125t-2.314453125,0.5400390625t-2.12158203125,0.154296875q-3.3173828125,0-4.97607421875-1.1572265625t-2.3916015625-3.1630859375t-0.88720703125-4.51318359375t-0.6171875-5.05322265625q-0.92578125,3.0087890625-2.43017578125,5.86328125t-3.548828125,5.13037109375t-4.82177734375,3.6259765625t-6.2490234375,1.35009765625q-5.091796875,0-8.5634765625-2.931640625t-5.59326171875-7.21337890625t-3.0859375-9.14208984375t-0.96435546875-9.0263671875z M149.11028320312,191.6435546875q0,2.8544921875,0.3857421875,6.017578125t1.27294921875,6.2490234375t2.27587890625,5.82470703125t3.4716796875,4.82177734375q3.7802734375-4.0888671875,5.59326171875-9.9521484375t3.240234375-11.30224609375t3.240234375-9.3349609375t5.59326171875-3.89599609375q2.3916015625,0,4.01171875,0.8486328125q-0.771484375-1.9287109375-2.5458984375-3.74169921875t-3.97314453125-3.3173828125t-4.5517578125-2.46875t-4.43603515625-0.96435546875q-0.6171875,0-1.42724609375,0.19287109375t-1.27294921875,0.03857421875q-3.1630859375,0.92578125-5.20751953125,3.20166015625t-3.3173828125,5.36181640625t-1.81298828125,6.326171875t-0.5400390625,6.0947265625z M201.85435546875,185.9345703125q0-1.54296875,0.34716796875-4.0888671875t0.81005859375-5.05322265625t1.080078125-4.66748046875t1.4658203125-2.77734375q0.6171875-0.6171875,2.12158203125-1.234375t3.1630859375-0.88720703125t3.0859375,0.2314453125t1.73583984375,2.04443359375q-1.080078125,1.388671875-1.96728515625,4.74462890625t-1.35009765625,7.44482421875q-0.3857421875,3.4716796875-0.3857421875,7.1748046875l0,1.3115234375q0.0771484375,4.3203125,0.771484375,7.9462890625t2.12158203125,5.97900390625t3.97314453125,2.35302734375q5.400390625,0,9.875-4.97607421875t7.9462890625-12.15087890625t6.0947265625-15.23681640625t4.474609375-14.07958984375q0.462890625-1.7744140625,2.19873046875-2.3916015625t3.74169921875-0.42431640625t3.58740234375,0.96435546875t1.89013671875,1.8515625q-1.54296875,12.9609375-2.43017578125,25.921875t-0.88720703125,26.076171875q0,2.5458984375,0.2314453125,4.66748046875t-0.2314453125,3.6259765625t-2.04443359375,2.3916015625t-5.05322265625,0.88720703125q-0.771484375,0-1.96728515625-0.154296875t-2.46875-0.50146484375t-2.16015625-1.04150390625t-0.88720703125-1.6201171875q0-5.708984375,0.42431640625-11.7265625t1.19580078125-11.6494140625q-2.0830078125,3.0087890625-4.59033203125,5.97900390625t-5.51611328125,5.36181640625t-6.48046875,3.81884765625t-7.4833984375,1.42724609375q-5.708984375,0-8.98779296875-2.7001953125t-4.9375-6.75048828125t-2.0830078125-8.83349609375t-0.42431640625-9.2578125z M274.42557617187,220.111328125q0-2.2373046875,0.19287109375-4.7060546875t0.34716796875-4.62890625l0.462890625-11.572265625q0.771484375-13.88671875,1.89013671875-27.310546875t1.89013671875-27.15625q0.462890625-7.560546875,0.6943359375-14.85107421875t0.6943359375-14.85107421875q-0.30859375-0.6171875-0.30859375-0.8486328125q0-1.080078125,0.81005859375-1.697265625t1.89013671875-1.04150390625t2.27587890625-0.57861328125t1.81298828125-0.154296875l1.7744140625,0q2.3916015625,0.30859375,3.4716796875,1.50439453125t1.388671875,2.8544921875t0.154296875,3.548828125t-0.154296875,3.51025390625q0,11.1865234375-0.5400390625,22.79736328125t-1.234375,23.298828125t-1.27294921875,23.3759765625t-0.57861328125,23.10595703125l0,5.400390625q0,3.6259765625-2.04443359375,4.783203125t-5.67041015625,1.1572265625q-3.1630859375,0-5.5546875-1.388671875t-2.3916015625-4.5517578125z M306.6481640625,143.734375q0-1.080078125,2.314453125-1.8515625t5.24609375-1.27294921875t5.67041015625-0.73291015625t3.74169921875-0.3857421875q0-2.0830078125,0.154296875-4.20458984375t0.8486328125-3.7802734375t2.19873046875-2.66162109375t4.20458984375-1.0029296875q2.2373046875,0,3.39453125,0.5400390625t2.46875,2.2373046875q0.30859375,0.92578125,0.30859375,1.7744140625l0,2.58447265625t-0.154296875,2.66162109375q2.8544921875-0.30859375,5.67041015625-0.73291015625t5.67041015625-0.42431640625q2.0830078125,0,2.8544921875,0.0771484375t1.54296875,1.8515625q0.6171875,1.7744140625-1.50439453125,2.7001953125t-5.091796875,1.388671875t-5.90185546875,0.6943359375t-3.548828125,0.2314453125q-0.92578125,13.26953125-1.89013671875,26.3076171875t-0.96435546875,26.4619140625q0,6.017578125,0.3857421875,12.4208984375t2.16015625,12.1123046875q0.462890625,1.7744140625,1.54296875,3.3173828125t1.080078125,3.3173828125q0,1.080078125-0.8486328125,1.697265625t-2.04443359375,1.04150390625t-2.3916015625,0.50146484375t-1.96728515625,0.0771484375q-4.8603515625,0-7.40625-3.6259765625t-3.66455078125-8.67919921875t-1.19580078125-10.37646484375t-0.0771484375-8.640625q0-6.7890625,0.27001953125-13.88671875t0.65576171875-14.041015625t1.080078125-13.578125t1.6201171875-12.34375q-2.7001953125,0.30859375-5.28466796875,0.6943359375t-5.28466796875,0.3857421875q-0.6171875,0-1.65869140625-0.0771484375t-1.96728515625-0.3857421875t-1.58154296875-0.8486328125t-0.65576171875-1.54296875z M365.64125976562,220.111328125q0-2.2373046875,0.19287109375-4.7060546875t0.34716796875-4.62890625l0.462890625-11.572265625q0.771484375-13.88671875,1.89013671875-27.310546875t1.89013671875-27.15625q0.462890625-7.560546875,0.6943359375-14.85107421875t0.6943359375-14.85107421875q-0.30859375-0.6171875-0.30859375-0.8486328125q0-1.080078125,0.81005859375-1.697265625t1.89013671875-1.04150390625t2.27587890625-0.57861328125t1.81298828125-0.154296875l1.7744140625,0q2.3916015625,0.30859375,3.4716796875,1.50439453125t1.388671875,2.8544921875t0.154296875,3.548828125t-0.154296875,3.51025390625q0,11.1865234375-0.5400390625,22.79736328125t-1.234375,23.298828125t-1.27294921875,23.3759765625t-0.57861328125,23.10595703125l0,5.400390625q0,3.6259765625-2.04443359375,4.783203125t-5.67041015625,1.1572265625q-3.1630859375,0-5.5546875-1.388671875t-2.3916015625-4.5517578125z M401.02693359375,175.51953125q0-2.2373046875,1.27294921875-2.931640625t3.20166015625-0.6943359375q3.1630859375,0,4.82177734375,1.19580078125t1.65869140625,4.20458984375q0,3.6259765625,0.5400390625,9.06494140625t1.58154296875,10.5693359375t2.46875,8.83349609375t2.97021484375,3.703125q2.8544921875,0,5.05322265625-4.3974609375t3.857421875-10.80078125t2.8544921875-13.77099609375t1.65869140625-13.15380859375q0.30859375-3.1630859375,1.50439453125-4.59033203125t4.35888671875-1.42724609375q3.6259765625,0,5.28466796875,3.0087890625t2.12158203125,7.40625q0.3857421875,3.7802734375,0.3857421875,7.869140625l0,1.3115234375l0,3.0859375q0,2.931640625,0.0771484375,5.24609375l2.2373046875,47.2919921875l0.30859375,7.869140625q0.154296875,1.080078125,0.2314453125,2.04443359375t0.0771484375,2.04443359375q0,4.3974609375-1.89013671875,5.67041015625t-6.13330078125,1.27294921875q-0.92578125,0-2.35302734375-0.154296875t-2.77734375-0.6171875t-2.314453125-1.27294921875t-0.96435546875-2.04443359375l0.30859375-0.771484375q0.3857421875-4.62890625,0.3857421875-9.720703125l0-1.6201171875q-0.0771484375-6.017578125-0.3857421875-12.189453125t-0.6943359375-12.34375t-0.3857421875-11.880859375q-1.080078125,2.3916015625-2.50732421875,4.9375t-3.3173828125,4.59033203125t-4.28173828125,3.39453125t-5.400390625,1.35009765625q-4.3974609375,0-7.251953125-2.314453125t-4.43603515625-6.017578125t-2.27587890625-8.29345703125t-0.92578125-9.1806640625t-0.30859375-8.75634765625t-0.6171875-7.0205078125z"/><path fill="#" d=""/></svg>
